<?xml version="1.0" standalone="no"?>
<!DOCTYPE svg PUBLIC "-//W3C//DTD SVG 20010904//EN"
 "http://www.w3.org/TR/2001/REC-SVG-20010904/DTD/svg10.dtd">
<svg version="1.0" xmlns="http://www.w3.org/2000/svg"
 width="260.000000pt" height="260.000000pt" viewBox="0 0 260.000000 260.000000"
 preserveAspectRatio="xMidYMid meet">
<metadata>
Created by potrace 1.11, written by Peter Selinger 2001-2013
</metadata>
<g transform="translate(0.000000,260.000000) scale(0.100000,-0.100000)"
fill="#000000" stroke="none">
<path d="M898 2595 c-2 -2 -75 -6 -163 -8 -88 -3 -161 -6 -162 -6 -2 -1 -3
-123 -3 -271 l0 -271 230 7 230 6 1 -24 c0 -12 1 -473 2 -1023 l2 -1000 266 0
266 -1 1 981 c0 539 1 1000 1 1024 l1 44 230 -7 230 -7 -2 272 -3 272 -80 3
c-112 5 -1043 13 -1047 9z"/>
</g>
</svg>
